<svg xmlns="http://www.w3.org/2000/svg" version="1.1" xmlns:xlink="http://www.w3.org/1999/xlink" xmlns:svgjs="http://svgjs.dev/svgjs" width="1000" height="750" viewBox="0 0 1000 750"><rect width="1000" height="750" fill="#000000"></rect><g transform="matrix(0.834,0,0,0.834,82.49454545454546,115.4193570850203)"><svg viewBox="0 0 396 247" data-background-color="#000000" preserveAspectRatio="xMidYMid meet" height="623" width="1000" xmlns="http://www.w3.org/2000/svg" xmlns:xlink="http://www.w3.org/1999/xlink"><g id="tight-bounds" transform="matrix(1,0,0,1,0.2400000000000091,-0.09999999999999432)"><svg viewBox="0 0 395.52 247.2" height="247.2" width="395.52"><g><svg></svg></g><g><svg viewBox="0 0 395.52 247.2" height="247.2" width="395.52"><g transform="matrix(1,0,0,1,75.54432,99.7986463770306)"><svg viewBox="0 0 244.43135999999998 47.6027072459388" height="47.6027072459388" width="244.43135999999998"><g><svg viewBox="0 0 244.43135999999998 47.6027072459388" height="47.6027072459388" width="244.43135999999998"><g><svg viewBox="0 0 244.43135999999998 47.6027072459388" height="47.6027072459388" width="244.43135999999998"><g><svg viewBox="0 0 244.43135999999998 47.6027072459388" height="47.6027072459388" width="244.43135999999998"><g id="textblocktransform"><svg viewBox="0 0 244.43135999999998 47.6027072459388" height="47.6027072459388" width="244.43135999999998" id="textblock"><g><svg viewBox="0 0 244.43135999999998 47.6027072459388" height="47.6027072459388" width="244.43135999999998"><g transform="matrix(1,0,0,1,0,0)"><svg width="244.43135999999998" viewBox="1.7000000476837158 -40.45000076293945 264.67999267578125 51.55000305175781" height="47.6027072459388" data-palette-color="#a83ae4"><path d="M17.9-35.55Q21.5-35.55 24.1-34.6 26.7-33.65 29-31.75L29-31.75 25-26.9Q21.85-29.45 18.1-29.45L18.1-29.45Q14.55-29.45 12.38-26.45 10.2-23.45 10.2-17.4L10.2-17.4Q10.2-11.35 12.35-8.43 14.5-5.5 18.25-5.5L18.25-5.5Q20.55-5.5 22.2-6.3 23.85-7.1 25.75-8.6L25.75-8.6 29.45-3.85Q24.85 0.85 17.8 0.85L17.8 0.85Q13.05 0.85 9.43-1.25 5.8-3.35 3.75-7.48 1.7-11.6 1.7-17.4L1.7-17.4Q1.7-23.05 3.8-27.15 5.9-31.25 9.6-33.4 13.3-35.55 17.9-35.55L17.9-35.55ZM44.95-40.45Q47-40.45 48.3-39.18 49.6-37.9 49.6-36L49.6-36Q49.6-34.05 48.3-32.8 47-31.55 44.95-31.55L44.95-31.55Q42.9-31.55 41.57-32.83 40.25-34.1 40.25-36L40.25-36Q40.25-37.9 41.57-39.18 42.9-40.45 44.95-40.45L44.95-40.45ZM49.7-26.55L49.7-5.4 56.5-5.4 56.5 0 34.3 0 34.3-5.4 41.8-5.4 41.8-21.15 34.55-21.15 34.55-26.55 49.7-26.55ZM63.5 0L63.5-26.55 70.4-26.55 70.95-23.5Q72.75-25.5 74.72-26.48 76.7-27.45 79.2-27.45L79.2-27.45Q82.65-27.45 84.57-25.35 86.5-23.25 86.5-19.5L86.5-19.5 86.5 0 78.59 0 78.59-17.2Q78.59-19.7 78.05-20.65 77.5-21.6 76.05-21.6L76.05-21.6Q74.84-21.6 73.72-20.83 72.59-20.05 71.4-18.55L71.4-18.55 71.4 0 63.5 0ZM100.34-10.95Q101.09-4.9 106.74-4.9L106.74-4.9Q110.14-4.9 113.54-7.1L113.54-7.1 116.69-2.8Q114.74-1.1 112.04-0.13 109.34 0.85 106.09 0.85L106.09 0.85Q101.64 0.85 98.54-0.93 95.44-2.7 93.87-5.88 92.29-9.05 92.29-13.25L92.29-13.25Q92.29-17.25 93.82-20.48 95.34-23.7 98.27-25.58 101.19-27.45 105.24-27.45L105.24-27.45Q109.04-27.45 111.84-25.83 114.64-24.2 116.17-21.13 117.69-18.05 117.69-13.8L117.69-13.8Q117.69-12.15 117.54-10.95L117.54-10.95 100.34-10.95ZM105.24-22.15Q103.09-22.15 101.79-20.58 100.49-19 100.24-15.75L100.24-15.75 109.99-15.75Q109.89-22.15 105.24-22.15L105.24-22.15ZM148.39-10.15Q148.39-6.9 146.69-4.4 144.99-1.9 141.81-0.53 138.64 0.85 134.29 0.85L134.29 0.85Q125.69 0.85 120.59-4.15L120.59-4.15 124.74-8.75Q128.69-5.25 134.09-5.25L134.09-5.25Q136.69-5.25 138.27-6.38 139.84-7.5 139.84-9.5L139.84-9.5Q139.84-11.4 138.52-12.48 137.19-13.55 133.59-14.65L133.59-14.65Q127.49-16.5 124.94-19 122.39-21.5 122.39-25.45L122.39-25.45Q122.39-28.55 124.12-30.85 125.84-33.15 128.81-34.35 131.79-35.55 135.44-35.55L135.44-35.55Q143.09-35.55 147.84-31.05L147.84-31.05 143.99-26.6Q142.24-28.05 140.22-28.78 138.19-29.5 136.04-29.5L136.04-29.5Q133.64-29.5 132.27-28.63 130.89-27.75 130.89-26.1L130.89-26.1Q130.89-25 131.52-24.25 132.14-23.5 133.59-22.85 135.04-22.2 137.94-21.3L137.94-21.3Q143.24-19.7 145.81-17.18 148.39-14.65 148.39-10.15L148.39-10.15ZM168.19-27.45Q173.19-27.45 175.54-23.78 177.89-20.1 177.89-13.35L177.89-13.35Q177.89-9.25 176.66-6.03 175.44-2.8 173.14-0.98 170.84 0.85 167.69 0.85L167.69 0.85Q163.84 0.85 161.39-1.9L161.39-1.9 161.39 10.25 153.49 11.1 153.49-26.55 160.49-26.55 160.84-23.6Q162.39-25.55 164.31-26.5 166.24-27.45 168.19-27.45L168.19-27.45ZM165.74-21.6Q163.24-21.6 161.39-18.5L161.39-18.5 161.39-7.3Q162.24-6.1 163.16-5.53 164.09-4.95 165.29-4.95L165.29-4.95Q167.49-4.95 168.61-6.93 169.74-8.9 169.74-13.25L169.74-13.25Q169.74-17.95 168.74-19.78 167.74-21.6 165.74-21.6L165.74-21.6ZM190.34-10.95Q191.09-4.9 196.74-4.9L196.74-4.9Q200.14-4.9 203.54-7.1L203.54-7.1 206.69-2.8Q204.74-1.1 202.04-0.13 199.34 0.85 196.09 0.85L196.09 0.85Q191.64 0.85 188.54-0.93 185.44-2.7 183.86-5.88 182.29-9.05 182.29-13.25L182.29-13.25Q182.29-17.25 183.81-20.48 185.34-23.7 188.26-25.58 191.19-27.45 195.24-27.45L195.24-27.45Q199.04-27.45 201.84-25.83 204.64-24.2 206.16-21.13 207.69-18.05 207.69-13.8L207.69-13.8Q207.69-12.15 207.54-10.95L207.54-10.95 190.34-10.95ZM195.24-22.15Q193.09-22.15 191.79-20.58 190.49-19 190.24-15.75L190.24-15.75 199.99-15.75Q199.89-22.15 195.24-22.15L195.24-22.15ZM227.33-37.1L227.33-8.35Q227.33-5.4 230.73-5.4L230.73-5.4Q232.58-5.4 234.53-6.2L234.53-6.2 236.38-0.9Q233.18 0.85 228.73 0.85L228.73 0.85Q224.08 0.85 221.76-1.83 219.43-4.5 219.43-9.35L219.43-9.35 219.43-31.7 211.63-31.7 211.63-37.1 227.33-37.1ZM257.33-37.1L257.33-8.35Q257.33-5.4 260.73-5.4L260.73-5.4Q262.58-5.4 264.53-6.2L264.53-6.2 266.38-0.9Q263.18 0.85 258.73 0.85L258.73 0.85Q254.08 0.85 251.76-1.83 249.43-4.5 249.43-9.35L249.43-9.35 249.43-31.7 241.63-31.7 241.63-37.1 257.33-37.1Z" opacity="1" transform="matrix(1,0,0,1,0,0)" fill="#a83ae4" class="wordmark-text-0" data-fill-palette-color="primary" id="text-0"></path></svg></g></svg></g></svg></g></svg></g></svg></g></svg></g></svg></g><path d="M206.154 93.799L206.154 32.84 387.674 32.84 387.674 214.36 206.154 214.36 206.154 153.401 210.447 153.401 210.447 210.067 383.381 210.067 383.381 37.133 210.447 37.133 210.447 93.799Z" fill="#a83ae4" stroke="transparent" data-fill-palette-color="primary"></path></svg></g><defs></defs></svg><rect width="395.52" height="247.2" fill="none" stroke="none" visibility="hidden"></rect></g></svg></g></svg>